<mxfile host="app.diagrams.net" modified="2023-09-11T05:48:54.731Z" agent="Mozilla/5.0 (Windows NT 10.0; Win64; x64) AppleWebKit/537.36 (KHTML, like Gecko) Chrome/116.0.0.0 Safari/537.36" etag="lODBErzzR9LZC21X5eVI" version="21.7.4" type="github">
  <diagram name="Page-1" id="l7aqgeWP--CYQBnBSVpR">
    <mxGraphModel dx="936" dy="522" grid="1" gridSize="10" guides="1" tooltips="1" connect="1" arrows="1" fold="1" page="1" pageScale="1" pageWidth="850" pageHeight="1100" math="0" shadow="0">
      <root>
        <mxCell id="0" />
        <mxCell id="1" parent="0" />
        <mxCell id="G_Ob33oSf3rivgiV5lZo-2" value="" style="rounded=0;whiteSpace=wrap;html=1;rotation=-90;fontSize=15;verticalAlign=top;" vertex="1" parent="1">
          <mxGeometry x="263.75" y="182.5" width="307.5" height="205" as="geometry" />
        </mxCell>
        <mxCell id="G_Ob33oSf3rivgiV5lZo-12" value="User&lt;br&gt;" style="shape=umlActor;verticalLabelPosition=bottom;verticalAlign=top;html=1;outlineConnect=0;" vertex="1" parent="1">
          <mxGeometry x="620" y="230" width="60" height="120" as="geometry" />
        </mxCell>
        <mxCell id="G_Ob33oSf3rivgiV5lZo-13" value="" style="ellipse;whiteSpace=wrap;html=1;" vertex="1" parent="1">
          <mxGeometry x="355.75" y="190" width="124.25" height="70" as="geometry" />
        </mxCell>
        <mxCell id="G_Ob33oSf3rivgiV5lZo-14" value="&lt;font style=&quot;font-size: 18px;&quot;&gt;Game Tebak Angka&lt;/font&gt;" style="text;html=1;align=center;verticalAlign=middle;resizable=0;points=[];autosize=1;strokeColor=none;fillColor=none;" vertex="1" parent="1">
          <mxGeometry x="327.88" y="125" width="180" height="40" as="geometry" />
        </mxCell>
        <mxCell id="G_Ob33oSf3rivgiV5lZo-33" value="&lt;font style=&quot;font-size: 14px;&quot;&gt;Random Angka&lt;/font&gt;" style="text;html=1;align=center;verticalAlign=middle;resizable=0;points=[];autosize=1;strokeColor=none;fillColor=none;" vertex="1" parent="1">
          <mxGeometry x="365" y="210" width="120" height="30" as="geometry" />
        </mxCell>
        <mxCell id="G_Ob33oSf3rivgiV5lZo-38" value="" style="ellipse;whiteSpace=wrap;html=1;" vertex="1" parent="1">
          <mxGeometry x="352.88" y="310" width="124.25" height="70" as="geometry" />
        </mxCell>
        <mxCell id="G_Ob33oSf3rivgiV5lZo-39" value="&lt;font style=&quot;font-size: 14px;&quot;&gt;Tebak Angka&lt;/font&gt;" style="text;html=1;align=center;verticalAlign=middle;resizable=0;points=[];autosize=1;strokeColor=none;fillColor=none;" vertex="1" parent="1">
          <mxGeometry x="365" y="330" width="100" height="30" as="geometry" />
        </mxCell>
        <mxCell id="G_Ob33oSf3rivgiV5lZo-40" value="Komputer" style="shape=umlActor;verticalLabelPosition=bottom;verticalAlign=top;html=1;outlineConnect=0;fontFamily=Verdana;" vertex="1" parent="1">
          <mxGeometry x="150" y="230" width="60" height="120" as="geometry" />
        </mxCell>
        <mxCell id="G_Ob33oSf3rivgiV5lZo-42" value="" style="endArrow=none;html=1;rounded=0;entryX=0.012;entryY=0.404;entryDx=0;entryDy=0;entryPerimeter=0;" edge="1" parent="1" target="G_Ob33oSf3rivgiV5lZo-13">
          <mxGeometry width="50" height="50" relative="1" as="geometry">
            <mxPoint x="220" y="300" as="sourcePoint" />
            <mxPoint x="350" y="220" as="targetPoint" />
          </mxGeometry>
        </mxCell>
        <mxCell id="G_Ob33oSf3rivgiV5lZo-43" value="" style="endArrow=none;html=1;rounded=0;exitX=1;exitY=0.5;exitDx=0;exitDy=0;" edge="1" parent="1" source="G_Ob33oSf3rivgiV5lZo-38" target="G_Ob33oSf3rivgiV5lZo-12">
          <mxGeometry width="50" height="50" relative="1" as="geometry">
            <mxPoint x="540" y="330" as="sourcePoint" />
            <mxPoint x="590" y="280" as="targetPoint" />
          </mxGeometry>
        </mxCell>
      </root>
    </mxGraphModel>
  </diagram>
</mxfile>
